<svg width="120" height="120" viewBox="0 0 120 120" fill="none" xmlns="http://www.w3.org/2000/svg">
<g filter="url(#filter0_d)">
<circle cx="61" cy="56" r="50" fill="#6F57FF"/>
</g>
<path d="M40.5239 55.5357C40.5835 52.9345 41.1192 50.4107 42.1251 48.0357C43.1549 45.5952 44.6311 43.4107 46.512 41.5238C48.3929 39.6369 50.5834 38.1607 53.0239 37.131C55.5477 36.0655 58.2262 35.5238 60.994 35.5238C63.7619 35.5238 66.4404 36.0655 68.9583 37.131C71.3918 38.1586 73.6016 39.6507 75.4642 41.5238C76.0535 42.1131 76.607 42.7381 77.1189 43.3929L73.5356 46.1905C73.4647 46.2453 73.4108 46.3191 73.3799 46.4032C73.3491 46.4874 73.3426 46.5785 73.3612 46.6662C73.3799 46.7539 73.4229 46.8345 73.4854 46.8988C73.5478 46.9631 73.6271 47.0085 73.7142 47.0298L84.1725 49.5893C84.4701 49.6607 84.7618 49.4345 84.7618 49.131L84.8094 38.3631C84.8094 37.9643 84.3511 37.7381 84.0415 37.9881L80.6844 40.6131C76.1071 34.756 68.988 31 60.9881 31C47.3513 31 36.2561 41.9286 36.0001 55.5119C35.9986 55.5754 36.0097 55.6386 36.0329 55.6978C36.0561 55.7569 36.091 55.8109 36.1353 55.8563C36.1797 55.9018 36.2328 55.938 36.2913 55.9626C36.3499 55.9873 36.4128 56 36.4763 56H40.0477C40.3096 56 40.518 55.7917 40.5239 55.5357ZM85.5237 56H81.9523C81.6904 56 81.482 56.2083 81.4761 56.4643C81.4165 59.0655 80.8808 61.5893 79.8749 63.9643C78.8451 66.4048 77.369 68.5952 75.488 70.4762C73.5895 72.3826 71.3324 73.8942 68.8468 74.924C66.3612 75.9538 63.6964 76.4813 61.006 76.4762C58.3164 76.4812 55.6525 75.9536 53.1679 74.9238C50.6833 73.894 48.4272 72.3824 46.5298 70.4762C45.9406 69.8869 45.387 69.2619 44.8751 68.6071L48.4584 65.8095C48.5293 65.7547 48.5833 65.6809 48.6141 65.5968C48.645 65.5126 48.6515 65.4215 48.6328 65.3338C48.6142 65.2461 48.5711 65.1655 48.5087 65.1012C48.4462 65.0368 48.3669 64.9915 48.2798 64.9702L37.8216 62.4107C37.5239 62.3393 37.2323 62.5655 37.2323 62.869L37.1906 73.6429C37.1906 74.0417 37.6489 74.2679 37.9585 74.0179L41.3156 71.3929C45.8929 77.244 53.012 81 61.0119 81C74.6547 81 85.7439 70.0655 85.9999 56.4881C86.0014 56.4246 85.9903 56.3614 85.9671 56.3022C85.9439 56.2431 85.909 56.1891 85.8647 56.1437C85.8203 56.0982 85.7673 56.062 85.7087 56.0374C85.6501 56.0127 85.5872 56 85.5237 56Z" fill="white"/>
<defs>
<filter id="filter0_d" x="0" y="0" width="120" height="120" filterUnits="userSpaceOnUse" color-interpolation-filters="sRGB">
<feFlood flood-opacity="0" result="BackgroundImageFix"/>
<feColorMatrix in="SourceAlpha" type="matrix" values="0 0 0 0 0 0 0 0 0 0 0 0 0 0 0 0 0 0 127 0"/>
<feOffset dx="-1" dy="4"/>
<feGaussianBlur stdDeviation="5"/>
<feColorMatrix type="matrix" values="0 0 0 0 0 0 0 0 0 0 0 0 0 0 0 0 0 0 0.25 0"/>
<feBlend mode="normal" in2="BackgroundImageFix" result="effect1_dropShadow"/>
<feBlend mode="normal" in="SourceGraphic" in2="effect1_dropShadow" result="shape"/>
</filter>
</defs>
</svg>
